<svg width="144" height="144" viewBox="0 0 144 144" fill="none" xmlns="http://www.w3.org/2000/svg">
<g clip-path="url(#clip0_306_142)">
<path d="M72 39.35C90 39.35 104.65 54 104.65 72C104.65 90 90 104.65 72 104.65C54 104.65 39.35 90 39.35 72C39.35 54 54 39.35 72 39.35ZM72 28.25C47.84 28.25 28.25 47.84 28.25 72C28.25 96.16 47.84 115.75 72 115.75C96.16 115.75 115.75 96.16 115.75 72C115.75 47.84 96.16 28.25 72 28.25Z" fill="white"/>
<path d="M72 83.0999C78.1304 83.0999 83.1 78.1303 83.1 71.9999C83.1 65.8695 78.1304 60.8999 72 60.8999C65.8696 60.8999 60.9 65.8695 60.9 71.9999C60.9 78.1303 65.8696 83.0999 72 83.0999Z" fill="white"/>
<path d="M75.61 126.42C75.61 124.426 73.9937 122.81 72 122.81C70.0062 122.81 68.39 124.426 68.39 126.42V140.39C68.39 142.384 70.0062 144 72 144C73.9937 144 75.61 142.384 75.61 140.39V126.42Z" fill="white"/>
<path d="M75.61 3.61C75.61 1.61625 73.9937 0 72 0C70.0062 0 68.39 1.61625 68.39 3.61V17.58C68.39 19.5737 70.0062 21.19 72 21.19C73.9937 21.19 75.61 19.5737 75.61 17.58V3.61Z" fill="white"/>
<path d="M17.57 75.6099C19.5637 75.6099 21.18 73.9936 21.18 71.9999C21.18 70.0061 19.5637 68.3899 17.57 68.3899H3.59999C1.60625 68.3899 -0.010006 70.0061 -0.010006 71.9999C-0.010006 73.9936 1.60625 75.6099 3.59999 75.6099H17.57Z" fill="white"/>
<path d="M140.39 75.6099C142.384 75.6099 144 73.9936 144 71.9999C144 70.0061 142.384 68.3899 140.39 68.3899H126.42C124.426 68.3899 122.81 70.0061 122.81 71.9999C122.81 73.9936 124.426 75.6099 126.42 75.6099H140.39Z" fill="white"/>
</g>
<defs>
<clipPath id="clip0_306_142">
<rect width="144" height="144" fill="white"/>
</clipPath>
</defs>
</svg>
